<?xml version="1.0" standalone="no"?>
<!DOCTYPE svg PUBLIC "-//W3C//DTD SVG 20010904//EN"
 "http://www.w3.org/TR/2001/REC-SVG-20010904/DTD/svg10.dtd">
<svg version="1.0" xmlns="http://www.w3.org/2000/svg"
 width="2304.000000pt" height="2304.000000pt" viewBox="0 0 2304.000000 2304.000000"
 preserveAspectRatio="xMidYMid meet">
<metadata>
Created by potrace 1.11, written by Peter Selinger 2001-2013
</metadata>
<g transform="translate(0.000000,2304.000000) scale(0.100000,-0.100000)"
fill="#000000" stroke="none">
<path d="M13520 22157 c-41 -13 -99 -36 -128 -52 -79 -43 -211 -176 -251 -253
-52 -98 -22 -387 47 -466 10 -10 60 -47 112 -81 102 -66 159 -122 161 -158 6
-143 8 -328 9 -603 l0 -330 102 -115 c55 -62 104 -116 107 -119 3 -3 35 -39
71 -80 36 -41 70 -80 75 -86 18 -19 140 -157 190 -214 27 -30 64 -72 83 -92
34 -37 34 -38 37 -143 4 -111 6 -125 32 -240 34 -149 118 -275 213 -319 39
-18 63 -21 185 -20 224 1 388 49 476 138 63 62 129 194 136 269 8 87 -21 219
-73 332 -32 69 -55 101 -116 163 -53 53 -92 71 -193 87 -37 6 -256 7 -370 1
-28 -1 -63 4 -79 12 -50 24 -313 296 -496 512 -30 36 -62 72 -70 82 -17 19
-23 133 -23 503 -1 285 1 294 55 330 121 80 221 237 259 402 45 201 -21 424
-150 505 -77 49 -81 50 -211 53 -96 3 -127 0 -190 -18z m220 -196 c53 -27 106
-75 126 -114 26 -49 44 -166 33 -221 -26 -137 -139 -230 -280 -230 -201 0
-339 203 -273 399 30 86 106 160 194 185 49 15 153 5 200 -19z m1057 -2388
c68 -39 157 -185 169 -276 31 -226 -252 -399 -466 -286 -175 93 -206 315 -66
474 101 116 253 153 363 88z"/>
<path d="M11525 22139 c-177 -29 -357 -145 -423 -274 -48 -94 -39 -232 24
-356 33 -66 34 -65 -139 -232 -89 -85 -182 -174 -207 -198 -25 -23 -124 -117
-220 -210 -96 -92 -195 -186 -220 -209 -25 -23 -113 -107 -197 -187 l-152
-145 47 -42 c26 -24 137 -124 247 -222 257 -230 268 -239 334 -300 31 -28 76
-68 101 -90 24 -21 54 -48 65 -59 12 -11 54 -49 95 -85 40 -36 83 -74 94 -85
12 -11 59 -54 106 -95 46 -41 104 -94 129 -117 l45 -41 2 -189 c1 -103 5 -505
9 -893 8 -799 12 -1210 14 -1226 1 -9 43 -11 144 -10 l142 1 -2 440 c-1 242
-4 699 -7 1015 -3 316 -6 663 -7 770 l-1 195 -96 95 c-54 53 -139 134 -191
180 -51 47 -108 98 -125 114 -75 68 -116 106 -196 176 -46 41 -91 82 -100 90
-9 8 -70 65 -135 125 -135 125 -241 231 -261 260 -13 19 13 47 414 450 235
237 437 438 449 448 21 18 23 18 80 -2 173 -63 376 -74 479 -27 179 82 280
268 277 512 -1 116 -24 171 -109 262 -76 82 -109 103 -225 143 -70 23 -198 32
-284 18z m197 -187 c57 -25 166 -131 192 -186 43 -92 19 -201 -62 -284 -115
-118 -281 -141 -420 -59 -139 83 -186 255 -109 403 27 52 110 119 169 137 69
21 168 17 230 -11z"/>
<path d="M15630 21924 c-36 -7 -76 -20 -90 -27 -14 -8 -41 -20 -62 -26 -38
-13 -137 -105 -184 -172 -56 -82 -66 -256 -23 -399 43 -140 130 -249 238 -299
61 -28 83 -33 158 -34 49 -1 112 2 142 6 67 9 193 42 221 57 17 9 27 8 47 -5
53 -35 882 -879 875 -892 -10 -18 -108 -118 -193 -198 -87 -81 -272 -252 -303
-278 -12 -10 -34 -31 -51 -46 -16 -14 -100 -89 -185 -166 -85 -76 -206 -189
-267 -250 l-113 -111 -1 -129 c-1 -185 -6 -830 -13 -1616 l-7 -677 147 2 146
1 4 415 c2 228 6 631 8 895 3 264 6 598 7 742 l1 263 86 77 c47 43 99 90 115
105 31 29 153 138 186 167 29 25 239 214 346 312 22 20 67 60 101 90 57 52
213 192 260 234 12 11 54 49 93 83 39 35 71 68 71 73 0 5 -19 26 -42 47 -23
20 -83 76 -133 123 -49 48 -110 106 -135 129 -42 40 -298 283 -436 415 -34 33
-135 129 -224 214 -89 85 -166 163 -171 173 -7 13 0 42 27 109 61 157 56 261
-18 369 -62 91 -200 180 -333 216 -81 21 -215 25 -295 8z m256 -167 c73 -18
161 -93 189 -161 74 -176 -11 -359 -190 -415 -156 -49 -322 18 -400 161 -36
65 -41 161 -11 217 46 86 168 186 245 202 37 8 129 5 167 -4z"/>
<path d="M5261 21783 c-95 -32 -251 -141 -332 -232 -52 -59 -74 -114 -86 -218
-13 -117 -5 -359 17 -473 20 -106 57 -145 258 -270 68 -42 109 -81 123 -116 9
-21 13 -275 16 -919 3 -489 6 -892 8 -893 4 -4 29 -4 220 -3 l130 1 1 353 c3
845 14 1451 26 1462 2 2 66 44 143 95 167 111 221 154 241 191 48 94 57 350
19 548 -23 122 -82 260 -144 337 -64 80 -169 128 -307 139 -187 14 -288 14
-333 -2z m310 -276 c144 -64 263 -238 253 -371 -5 -72 -68 -226 -113 -278 -71
-80 -131 -98 -289 -84 -97 8 -138 19 -193 55 -53 33 -90 77 -118 142 -93 211
28 509 227 559 62 15 171 5 233 -23z"/>
<path d="M7565 21786 c-198 -47 -374 -271 -441 -561 -4 -16 -8 -104 -10 -195
-3 -141 0 -176 17 -238 62 -229 215 -426 420 -540 51 -29 170 -70 226 -79 70
-11 243 -8 279 4 37 13 34 16 245 -227 73 -85 136 -157 139 -160 3 -3 48 -54
100 -115 52 -60 98 -112 101 -115 3 -3 148 -168 322 -368 201 -230 317 -371
318 -385 0 -12 2 -71 4 -130 2 -60 6 -170 9 -245 3 -76 9 -222 12 -327 3 -104
8 -221 9 -260 2 -38 3 -100 4 -137 l1 -68 200 0 200 0 0 666 0 667 -74 91
c-85 105 -279 342 -304 371 -10 11 -98 119 -197 240 -100 121 -190 231 -202
245 -50 58 -377 459 -413 505 -62 81 -60 127 19 383 22 73 43 143 45 155 20
96 23 123 20 183 -5 121 -59 222 -178 337 -148 143 -337 245 -545 293 -84 20
-261 25 -326 10z m418 -368 c74 -35 112 -67 177 -148 79 -98 93 -137 93 -250
0 -114 -13 -182 -53 -266 -101 -211 -356 -277 -563 -147 -66 41 -150 135 -184
205 -98 202 -75 387 68 526 104 102 331 141 462 80z"/>
<path d="M2050 20893 c-150 -64 -251 -152 -328 -285 -28 -49 -69 -166 -76
-214 -31 -218 44 -352 240 -433 115 -48 110 -40 108 -183 -3 -197 -15 -683
-19 -808 -2 -63 -6 -238 -10 -388 l-6 -274 138 6 c76 4 167 9 203 11 36 2 117
7 180 10 63 3 147 7 185 10 91 5 287 15 395 20 87 4 200 11 370 20 52 4 124 8
160 10 l64 3 186 -183 c102 -101 244 -241 317 -312 72 -70 310 -303 528 -518
218 -214 449 -441 512 -503 l116 -112 98 99 c55 55 99 103 99 109 0 5 -121
128 -269 273 -897 882 -1111 1092 -1274 1251 l-181 176 -185 -4 c-102 -2 -217
-6 -256 -8 -38 -2 -133 -7 -210 -11 -77 -3 -167 -8 -200 -10 -230 -15 -602
-24 -653 -16 l-34 6 -2 590 c-1 325 0 611 2 637 4 43 7 48 36 58 46 15 167 91
235 148 156 129 207 284 152 468 -41 138 -162 294 -272 349 -47 24 -67 28
-169 31 -108 4 -119 2 -180 -23z m227 -203 c77 -16 144 -82 169 -166 21 -74
14 -172 -17 -240 -29 -60 -102 -134 -166 -165 -63 -31 -198 -34 -254 -6 -59
29 -112 81 -144 138 -26 47 -30 64 -30 134 0 63 5 90 23 127 38 77 112 145
186 171 51 17 165 21 233 7z"/>
<path d="M20861 20513 c-102 -21 -222 -66 -284 -107 -109 -72 -155 -141 -173
-256 -6 -38 -8 -249 -4 -367 2 -58 -1 -78 -18 -105 -28 -44 -207 -222 -368
-364 -77 -69 -69 -62 -161 -142 l-71 -62 -129 -6 c-158 -6 -581 -6 -608 0 -11
2 -27 5 -35 5 -9 1 -35 27 -59 59 -118 154 -285 242 -492 258 -158 13 -332
-55 -401 -156 -46 -69 -56 -105 -59 -210 -5 -192 44 -321 170 -450 89 -90 147
-129 216 -145 121 -29 351 13 412 74 15 15 46 56 67 92 48 79 101 146 126 159
30 16 123 19 563 21 l408 0 52 46 c29 26 54 49 57 52 3 3 41 37 85 76 44 38
87 76 96 85 9 8 43 38 75 66 32 29 71 62 85 75 14 13 56 51 94 84 38 33 90 79
116 103 84 76 89 79 154 79 238 0 435 62 542 170 44 45 54 62 66 115 36 158
-17 487 -93 583 -40 50 -94 91 -170 130 -101 51 -156 59 -259 38z m175 -233
c104 -62 158 -154 163 -276 5 -149 -83 -272 -221 -308 -130 -33 -270 31 -355
162 -62 96 -68 209 -16 289 27 43 123 111 201 143 65 28 174 23 228 -10z
m-2471 -1041 c218 -52 290 -317 130 -480 -57 -59 -116 -83 -210 -83 -95 -1
-154 22 -213 82 -159 162 -79 440 138 477 19 3 35 7 37 8 8 8 76 6 118 -4z"/>
<path d="M21445 18705 c-294 -67 -543 -299 -626 -583 -23 -80 -32 -241 -17
-326 l11 -60 -45 -40 c-54 -50 -102 -93 -193 -171 -39 -33 -72 -62 -75 -65 -3
-3 -36 -32 -75 -65 -38 -33 -74 -65 -80 -71 -5 -6 -41 -37 -80 -70 -38 -32
-75 -64 -81 -69 -6 -6 -39 -35 -74 -65 -35 -30 -70 -62 -79 -70 -9 -9 -47 -43
-86 -75 -38 -33 -88 -76 -110 -96 -22 -20 -116 -102 -208 -183 -164 -142 -170
-146 -215 -147 -26 0 -78 -2 -117 -4 -104 -5 -355 -14 -570 -21 -104 -4 -212
-8 -240 -9 -27 -2 -87 -3 -132 -4 l-83 -1 0 -200 0 -200 668 0 667 0 75 61
c41 34 134 110 205 169 72 59 288 237 480 395 193 158 359 294 370 304 223
186 358 291 387 299 38 10 90 7 153 -9 22 -6 47 -13 55 -15 8 -2 67 -20 130
-40 322 -101 457 -77 648 116 147 147 253 346 303 565 17 75 19 258 4 314 -44
169 -223 331 -446 405 -99 33 -131 37 -294 41 -121 3 -187 0 -230 -10z m345
-285 c122 -32 240 -154 264 -270 3 -14 11 -54 19 -89 31 -144 -36 -290 -182
-399 -20 -15 -38 -30 -41 -33 -29 -36 -157 -62 -258 -54 -229 21 -377 134
-416 318 -31 151 42 323 182 430 132 100 289 136 432 97z"/>
<path d="M13084 18319 c-54 -7 -155 -48 -186 -76 -17 -15 -20 -15 -41 4 -49
46 -151 60 -233 33 -41 -14 -60 -36 -68 -80 -3 -19 -8 -44 -10 -56 -10 -53
-27 -728 -41 -1649 -3 -176 -7 -473 -10 -660 -9 -594 -26 -2299 -40 -3955 -21
-2588 -21 -5643 0 -6033 12 -223 66 -337 187 -398 56 -28 67 -30 206 -34 152
-5 238 -9 452 -22 230 -14 263 -8 315 57 11 14 33 37 48 51 26 24 28 30 21 70
-15 85 0 1862 21 2624 3 94 7 283 10 420 3 138 8 269 11 292 9 70 68 125 100
93 14 -14 32 -17 164 -25 119 -8 154 -9 380 -20 74 -3 171 -7 215 -9 44 -3
152 -7 240 -11 88 -3 207 -8 265 -10 125 -6 304 -13 495 -20 77 -3 190 -7 250
-10 61 -2 178 -7 260 -10 291 -12 337 -18 381 -54 48 -39 47 -23 50 -781 3
-677 6 -909 19 -1425 22 -857 32 -1027 62 -1073 40 -63 295 -171 463 -196 119
-18 557 -13 576 7 2 2 22 77 45 168 l41 164 4 975 c1 536 5 1646 8 2465 19
4894 26 8826 16 8968 -6 88 -12 96 -105 126 -119 39 -249 56 -425 55 -128 -1
-198 -10 -270 -34 -40 -14 -59 -16 -74 -8 -48 26 -234 -12 -256 -52 -22 -41
-31 -421 -45 -1950 -13 -1452 -16 -1706 -20 -2140 -23 -2167 -55 -3248 -101
-3492 -4 -21 -12 -28 -42 -33 -69 -11 -333 -15 -1332 -19 -547 -3 -1070 -8
-1162 -11 l-166 -6 -7 53 c-33 289 -48 1048 -48 2528 0 2099 35 4515 70 4840
18 169 4 238 -64 302 -61 58 -86 63 -343 63 -129 0 -258 -3 -286 -6z"/>
<path d="M6051 18294 c-12 -15 -22 -34 -22 -43 -8 -87 -18 -655 -34 -1816 -5
-410 -13 -918 -20 -1435 -3 -195 -7 -526 -10 -735 -3 -209 -7 -533 -10 -720
-2 -187 -7 -522 -10 -745 -3 -223 -7 -571 -10 -775 -3 -203 -7 -545 -10 -760
-3 -214 -7 -529 -10 -700 -2 -170 -7 -517 -10 -770 -3 -253 -8 -611 -10 -795
-3 -184 -7 -533 -10 -775 -3 -242 -7 -582 -10 -755 -22 -1673 -24 -1864 -14
-1916 19 -101 82 -183 156 -203 73 -20 331 -43 613 -56 302 -14 520 -18 855
-18 519 0 702 12 731 51 74 99 93 208 52 310 -26 63 -26 72 1 72 9 0 27 9 41
21 14 11 48 35 77 55 47 32 195 180 305 306 56 64 264 274 374 378 140 133
314 286 669 589 138 118 293 253 345 300 52 47 112 102 134 121 82 74 245 229
346 330 174 174 271 320 314 470 22 77 27 112 31 220 2 52 6 105 9 116 5 24
14 179 23 404 4 85 7 1458 8 3050 l1 2895 -44 118 c-51 136 -113 260 -180 356
-25 36 -48 68 -52 71 -3 3 -30 34 -60 69 -46 53 -244 252 -324 326 -12 11 -53
49 -92 85 -38 36 -111 103 -163 150 -51 47 -106 96 -121 110 -34 31 -151 137
-311 281 -68 62 -357 316 -509 449 -36 31 -103 90 -150 131 -154 135 -434 371
-490 413 -123 92 -496 402 -550 456 -87 88 -247 204 -343 248 -154 71 -262 91
-437 78 -110 -7 -278 -10 -570 -8 -47 0 -148 -1 -224 -2 -102 -3 -149 0 -173
10 -49 21 -79 17 -102 -12z m1489 -1804 c25 -30 47 -57 50 -60 3 -3 41 -45 85
-95 95 -107 385 -398 509 -510 49 -44 94 -85 100 -90 16 -15 195 -175 231
-206 17 -14 55 -48 85 -75 31 -27 89 -78 130 -114 469 -412 590 -539 664 -701
82 -181 91 -271 71 -749 -2 -47 -6 -247 -10 -445 -35 -1982 -39 -4146 -8
-4680 12 -207 10 -265 -11 -305 -19 -36 -90 -108 -446 -450 -117 -113 -245
-236 -284 -273 -39 -38 -115 -110 -170 -160 -54 -51 -115 -108 -136 -127 -57
-53 -200 -182 -250 -226 -25 -21 -47 -41 -50 -45 -42 -46 -431 -365 -620 -508
l-135 -102 -17 21 c-32 40 -37 91 -33 340 4 245 6 266 24 324 13 41 39 204 46
291 3 39 8 81 11 95 8 49 21 260 29 495 13 396 34 2226 50 4330 4 524 17 3948
16 4063 -1 49 -3 50 69 -38z m2787 -1952 c-3 -8 -6 -5 -6 6 -1 11 2 17 5 13 3
-3 4 -12 1 -19z m-3937 -7788 c0 -5 -2 -10 -4 -10 -3 0 -8 5 -11 10 -3 6 -1
10 4 10 6 0 11 -4 11 -10z"/>
<path d="M2630 17097 c-66 -18 -106 -46 -185 -129 -74 -76 -132 -175 -155
-261 -15 -54 -18 -215 -7 -292 4 -27 17 -68 27 -91 38 -79 192 -206 298 -248
48 -18 90 -16 187 9 75 20 169 27 199 15 25 -9 200 -176 505 -481 l186 -186
55 -2 c30 -1 71 -3 90 -5 19 -2 98 -7 175 -11 77 -4 158 -9 180 -10 22 -2 99
-6 170 -10 72 -4 146 -8 165 -11 19 -2 62 -4 94 -5 62 -1 59 1 171 -103 40
-37 161 -123 205 -145 136 -70 262 -85 353 -41 101 48 261 240 338 404 29 62
31 73 26 144 -7 96 -12 120 -42 193 -30 75 -51 102 -123 155 -129 96 -268 147
-402 148 -124 0 -158 -20 -353 -217 -106 -106 -169 -162 -190 -168 -50 -15
-423 -11 -607 6 -25 2 -83 7 -130 10 -47 4 -90 10 -97 13 -19 11 -240 222
-375 359 -142 143 -181 191 -173 212 14 36 17 189 4 246 -7 33 -13 62 -14 65
-24 117 -143 290 -246 359 -114 76 -235 105 -329 78z m220 -246 c121 -63 191
-161 191 -268 1 -120 -52 -206 -165 -266 -61 -32 -183 -31 -251 2 -61 30 -112
82 -145 147 -20 39 -25 64 -25 124 0 123 52 203 168 259 74 36 161 36 227 2z
m2399 -946 c82 -21 128 -45 170 -87 112 -112 95 -323 -36 -438 -203 -179 -488
-50 -499 226 -6 158 60 266 196 318 22 8 97 0 169 -19z"/>
<path d="M18510 14665 c0 -141 3 -185 13 -186 23 -2 114 -1 507 5 357 5 1042
9 1245 6 77 0 83 -2 144 -43 35 -23 74 -49 87 -57 13 -8 112 -76 219 -150 108
-74 203 -139 213 -145 9 -5 19 -13 22 -16 3 -3 106 -75 229 -160 124 -85 230
-157 235 -162 13 -8 -6 -27 -169 -162 -33 -27 -92 -77 -130 -110 -39 -33 -93
-79 -120 -101 -28 -23 -128 -107 -223 -188 -95 -80 -177 -146 -181 -146 -4 0
-21 4 -37 9 -16 5 -82 23 -146 41 -113 30 -122 31 -265 26 -81 -3 -165 -8
-186 -11 -79 -13 -246 -86 -301 -132 -75 -62 -152 -190 -175 -288 -30 -130 20
-301 128 -435 80 -99 160 -159 254 -191 84 -29 219 -22 325 15 184 64 349 189
451 340 39 57 87 186 97 259 l7 49 321 270 c176 148 370 311 430 362 60 50
114 96 120 101 6 6 67 58 136 115 69 58 137 115 151 128 14 12 34 29 45 37 19
14 19 14 -1 29 -17 13 -243 175 -374 267 -79 55 -537 381 -556 395 -11 8 -146
104 -300 214 l-280 199 -967 1 -968 0 0 -185z m1765 -1789 c205 -101 245 -397
71 -528 -65 -48 -131 -66 -233 -62 -104 4 -177 32 -242 90 -163 147 -138 388
50 485 109 56 256 62 354 15z"/>
<path d="M3998 14681 c-58 -12 -114 -55 -243 -184 l-120 -121 -645 -3 c-355
-1 -744 -2 -865 -3 l-220 -1 -320 -385 c-176 -212 -325 -391 -330 -397 -6 -7
-62 -75 -125 -152 -63 -77 -122 -149 -132 -160 -16 -19 -76 -94 -101 -125 -45
-56 -111 -138 -124 -154 -41 -51 -133 -179 -133 -186 0 -10 74 -151 106 -202
13 -21 24 -39 24 -42 0 -2 36 -65 80 -141 44 -76 80 -138 80 -140 0 -1 37 -65
82 -141 45 -76 87 -150 95 -164 7 -14 68 -119 136 -235 l123 -210 738 0 c716
0 738 1 748 19 6 11 76 119 156 240 80 122 231 352 335 511 104 160 191 291
192 293 8 9 701 19 1613 22 l312 1 0 169 0 170 -412 -5 c-227 -2 -654 -7 -948
-11 -294 -3 -585 -6 -647 -7 l-112 0 -93 -136 c-202 -298 -374 -552 -456 -676
-48 -71 -90 -134 -95 -140 -4 -5 -24 -35 -45 -65 l-38 -55 -294 3 c-666 6
-771 9 -779 18 -13 13 -481 826 -481 834 0 4 -7 13 -15 20 -8 7 -15 19 -15 27
0 12 174 239 201 263 3 3 84 102 179 220 96 118 179 220 185 226 5 6 24 28 40
49 55 69 137 170 144 175 3 3 19 23 36 45 16 22 32 42 35 45 3 3 52 62 109
133 57 70 106 128 110 128 34 9 1499 19 1546 12 25 -4 39 -19 80 -85 60 -96
173 -215 236 -250 56 -30 97 -39 187 -39 142 -1 258 19 340 58 43 21 61 38
101 99 78 116 149 323 136 396 -24 135 -144 361 -208 391 -31 14 -97 31 -167
42 -63 10 -284 14 -322 6z m298 -206 c179 -88 207 -360 53 -513 -114 -113
-300 -130 -410 -38 -77 65 -102 141 -95 284 4 76 10 101 30 135 84 144 275
204 422 132z"/>
<path d="M18810 11501 l0 -169 533 -1 c292 -1 664 -3 825 -4 l294 -3 27 -30
c22 -24 127 -155 287 -359 50 -64 183 -238 201 -262 10 -14 23 -30 29 -37 47
-51 185 -248 182 -262 -2 -9 -156 -220 -343 -470 l-340 -454 -842 0 -843 0 -1
-32 c0 -18 -2 -64 -5 -103 -2 -38 -6 -105 -8 -147 l-4 -78 922 0 921 0 55 71
c47 61 104 134 206 264 12 17 97 126 188 243 90 117 176 227 190 245 32 39 34
42 71 92 17 22 32 42 35 45 15 14 250 321 250 326 0 4 -232 296 -515 650
l-515 644 -900 0 -900 0 0 -169z"/>
<path d="M3228 10985 c-1 -1 -25 -6 -53 -10 -77 -10 -128 -23 -201 -50 -150
-56 -214 -118 -260 -248 -25 -71 -37 -341 -19 -405 28 -93 171 -283 249 -332
87 -53 337 -64 584 -25 73 11 128 61 197 175 58 98 95 141 134 158 31 13 140
16 791 18 415 2 772 4 792 4 l37 0 -3 153 c-2 83 -4 154 -5 157 0 3 -220 6
-489 8 -809 4 -1102 10 -1117 22 -7 6 -33 41 -56 78 -24 37 -46 69 -49 72 -3
3 -27 38 -54 78 -62 93 -97 119 -181 137 -57 12 -286 20 -297 10z m173 -251
c107 -40 156 -85 190 -173 10 -27 16 -50 14 -52 -2 -2 -6 -40 -10 -84 -8 -105
-28 -163 -71 -214 -147 -171 -484 -120 -586 88 -18 35 -23 62 -22 116 1 100
38 179 118 252 128 116 202 130 367 67z"/>
<path d="M4997 9353 c-2 -1 -688 -12 -1069 -17 l-117 -1 -138 -105 c-146 -112
-688 -532 -713 -553 -8 -7 -33 -26 -55 -42 -22 -16 -42 -32 -45 -35 -3 -3 -68
-55 -145 -115 -77 -60 -142 -112 -145 -115 -3 -3 -46 -39 -95 -81 l-91 -76
-74 -1 c-41 -1 -91 2 -110 6 -169 38 -577 -215 -630 -391 -12 -42 -15 -149 -5
-197 2 -14 7 -38 11 -55 19 -97 86 -266 126 -316 46 -58 306 -123 468 -118
100 3 318 67 400 117 74 46 94 80 105 187 4 33 10 92 15 130 5 39 7 140 5 225
-2 109 1 164 10 185 8 21 94 97 265 235 139 113 258 210 264 215 6 6 45 38 86
70 41 33 86 70 100 82 21 17 169 138 414 336 22 18 57 47 79 65 33 27 47 32
95 33 32 0 129 2 217 4 512 11 922 19 1268 25 l107 2 1 42 c0 22 2 92 4 154
l3 112 -305 -2 c-168 -2 -305 -4 -306 -5z m-2751 -1414 c131 -31 208 -125 208
-253 0 -155 -138 -285 -308 -292 -93 -4 -134 8 -189 56 -65 58 -91 116 -91
210 -1 60 4 85 23 123 64 131 206 193 357 156z"/>
<path d="M21891 8804 c-130 -38 -202 -78 -280 -153 -82 -81 -173 -197 -209
-266 -39 -76 -36 -171 12 -395 44 -202 44 -208 4 -250 -19 -19 -90 -100 -158
-180 -69 -79 -132 -151 -140 -160 -8 -9 -24 -27 -35 -41 -36 -42 -229 -264
-235 -269 -3 -3 -30 -34 -60 -70 -30 -35 -64 -74 -75 -85 -11 -12 -40 -45 -64
-73 l-43 -52 -1036 -2 -1036 -3 -123 -150 c-67 -82 -119 -152 -115 -156 4 -4
30 -10 57 -13 28 -4 64 -8 81 -10 17 -2 89 -7 160 -11 71 -4 156 -9 189 -11
33 -2 481 -6 995 -9 l935 -5 195 221 c107 121 204 231 215 243 46 52 151 170
165 185 9 9 47 52 85 95 39 44 77 87 85 96 37 40 180 199 210 234 33 37 35 38
89 32 31 -3 81 -10 111 -16 30 -6 71 -13 90 -16 19 -3 55 -10 80 -14 76 -14
180 -6 226 18 55 28 171 122 259 208 157 155 245 279 245 348 1 23 2 84 4 136
3 102 -7 135 -63 210 -70 93 -309 272 -471 353 -98 48 -110 52 -185 54 -60 1
-101 -5 -164 -23z m250 -249 c53 -11 108 -43 148 -84 40 -43 125 -197 136
-251 13 -60 7 -143 -15 -202 -17 -46 -34 -68 -101 -127 -114 -101 -175 -130
-286 -136 -149 -8 -294 78 -361 215 -29 59 -29 61 -40 135 -21 141 63 294 201
364 34 18 80 43 102 55 69 39 136 48 216 31z"/>
<path d="M4145 7378 c-22 -18 -45 -37 -51 -43 -6 -5 -30 -26 -54 -45 -51 -41
-497 -407 -555 -455 -22 -19 -94 -78 -160 -132 -66 -54 -174 -143 -241 -198
-66 -55 -140 -116 -164 -135 -24 -19 -82 -67 -130 -107 -109 -91 -145 -101
-255 -76 -33 8 -67 16 -75 18 -8 2 -49 15 -90 28 -73 24 -148 46 -181 52 -9 2
-32 7 -50 12 -46 13 -178 8 -224 -7 -156 -51 -352 -257 -446 -467 -17 -37 -34
-75 -38 -83 -15 -28 -43 -133 -56 -210 -16 -92 -12 -250 8 -307 60 -173 259
-332 494 -394 103 -28 377 -36 470 -14 211 50 409 190 529 375 42 65 87 164
98 217 4 15 9 39 12 53 11 46 12 204 1 267 -9 60 -9 64 14 82 28 22 51 42 134
115 33 30 155 136 270 237 116 101 224 195 240 210 35 30 262 228 355 309 34
30 71 62 80 70 22 19 139 122 202 178 42 36 55 42 96 43 50 1 99 3 337 13 83
3 233 8 335 12 102 3 217 8 255 9 39 2 103 3 143 4 l72 1 0 200 0 200 -668 0
-667 0 -40 -32z m-1830 -1453 c261 -69 376 -319 257 -563 -38 -78 -141 -179
-225 -220 -188 -91 -368 -75 -498 45 -65 60 -94 113 -123 226 -35 132 -2 274
86 368 78 84 180 148 258 163 42 8 184 -3 245 -19z"/>
<path d="M11654 5098 c3 -167 8 -688 11 -1158 l6 -855 -143 -211 c-228 -336
-678 -989 -779 -1131 -15 -22 -18 -19 -175 168 -87 105 -169 203 -182 217 -13
15 -40 47 -60 72 -20 25 -40 47 -43 50 -3 3 -66 77 -140 165 -73 88 -171 204
-216 258 -46 54 -81 102 -78 108 4 5 8 17 10 26 2 10 23 86 46 168 38 136 42
161 42 265 0 129 -10 307 -19 348 -6 27 -19 69 -34 107 -88 225 -132 285 -282
382 -188 122 -386 132 -593 32 -173 -83 -328 -240 -394 -399 -37 -88 -40 -236
-7 -364 75 -290 290 -566 530 -680 76 -36 232 -81 292 -85 10 -1 49 -45 236
-266 9 -11 25 -30 35 -41 10 -12 72 -86 138 -164 66 -79 149 -178 185 -220 36
-42 81 -96 102 -121 20 -24 46 -55 58 -69 12 -14 38 -45 58 -69 94 -112 258
-308 274 -325 9 -10 61 -72 115 -137 54 -65 100 -118 103 -118 3 0 36 44 73
97 38 53 198 279 356 502 158 223 378 533 489 690 111 157 225 317 253 355 27
39 83 117 124 175 l75 105 0 1212 0 1213 -235 0 -236 0 5 -302z m-2206 -1302
c140 -71 220 -208 228 -391 4 -103 -6 -156 -43 -231 -81 -166 -284 -255 -469
-208 -134 35 -237 146 -262 285 -11 59 -6 206 9 261 28 107 126 231 214 273
110 52 233 57 323 11z"/>
<path d="M5192 5107 c-26 -24 -177 -157 -337 -297 -159 -139 -306 -267 -325
-284 -36 -33 -690 -598 -725 -627 -82 -69 -171 -145 -175 -150 -15 -18 -530
-443 -613 -505 -76 -58 -101 -72 -115 -65 -40 22 -87 30 -184 29 -167 0 -327
-32 -413 -83 -75 -43 -178 -173 -232 -293 -84 -182 29 -494 211 -581 92 -44
241 -75 368 -75 78 0 93 4 155 34 65 32 163 100 210 147 47 46 95 157 109 253
3 25 7 87 9 137 l2 93 50 47 c27 27 92 86 143 133 52 47 101 92 110 100 24 23
355 317 445 395 44 39 82 73 85 76 3 3 41 36 85 74 44 38 85 74 91 80 15 14
119 105 234 205 52 46 111 97 130 114 19 18 125 110 235 206 110 96 211 184
225 196 14 13 86 75 160 140 74 64 164 143 200 174 36 32 83 72 105 91 83 71
95 83 93 90 -3 8 -275 189 -284 189 -3 0 -26 -19 -52 -43z m-2482 -2168 c66
-35 109 -79 140 -144 23 -48 29 -78 36 -171 7 -86 -7 -143 -46 -188 -46 -52
-91 -68 -184 -69 -141 -1 -256 49 -319 139 -43 61 -58 106 -62 189 -4 79 18
141 72 197 86 91 243 111 363 47z"/>
<path d="M18455 5110 c-3 -6 -8 -98 -10 -205 l-3 -195 641 0 642 0 22 -33 c57
-85 596 -903 648 -982 32 -49 88 -135 125 -190 36 -55 82 -127 103 -161 l37
-61 -35 -119 c-80 -281 -85 -349 -34 -503 60 -185 212 -327 399 -376 41 -11
106 -17 175 -18 98 0 117 3 180 28 99 40 169 88 256 175 82 82 138 171 164
262 21 73 14 244 -12 309 -37 96 -128 225 -218 312 -60 59 -91 76 -151 82 -25
2 -121 25 -212 49 -92 25 -176 46 -187 48 -21 3 -66 58 -157 193 -34 50 -64
92 -67 95 -4 3 -27 37 -51 75 -25 39 -48 72 -52 73 -5 2 -8 7 -8 12 0 4 -42
71 -92 148 -107 160 -341 520 -438 672 -115 181 -186 280 -199 281 -64 4 -499
14 -1136 25 -170 3 -312 7 -316 10 -4 2 -10 0 -14 -6z m2856 -1897 c36 -16 82
-48 102 -69 43 -46 132 -204 143 -254 35 -167 -93 -349 -263 -375 -22 -3 -53
-9 -69 -14 -121 -35 -298 30 -375 137 -132 183 -68 458 132 567 71 38 100 45
190 41 59 -2 89 -9 140 -33z"/>
<path d="M14935 5015 c-102 -22 -192 -64 -225 -103 -60 -73 -120 -311 -120
-478 0 -152 90 -263 315 -386 l49 -27 3 -98 c4 -186 12 -688 12 -820 1 -80 5
-133 11 -133 5 0 39 -18 75 -40 36 -22 67 -40 69 -40 2 0 46 -24 97 -53 52
-29 128 -71 169 -94 41 -22 172 -94 290 -160 118 -66 251 -139 295 -163 44
-24 102 -56 128 -72 26 -15 53 -28 60 -28 7 0 41 28 77 63 91 86 362 343 418
396 54 50 119 111 327 307 83 78 171 162 196 185 26 24 90 84 142 133 l95 89
175 57 c171 57 281 104 322 138 52 43 84 134 111 306 19 131 7 220 -42 297
-33 53 -131 148 -197 192 -89 60 -121 70 -202 64 -86 -6 -104 -10 -184 -42
-65 -27 -77 -33 -169 -93 -114 -73 -192 -183 -196 -276 -3 -54 17 -184 43
-281 12 -44 23 -87 25 -95 3 -8 9 -27 15 -42 9 -24 6 -33 -26 -75 -64 -86
-462 -474 -832 -811 -132 -121 -133 -122 -144 -122 -9 0 -232 114 -402 205
-68 36 -186 99 -320 170 -49 26 -95 52 -101 57 -10 7 -12 354 -5 813 l2 70 47
35 c26 19 79 67 119 106 65 65 74 79 99 155 43 131 39 335 -8 437 -28 60 -147
178 -215 215 -97 52 -270 70 -398 42z m325 -174 c199 -102 220 -355 43 -522
-130 -123 -291 -135 -421 -32 -50 41 -75 86 -92 167 -16 77 -6 149 30 222 44
89 98 140 187 174 70 27 192 23 253 -9z m2438 -540 c145 -60 208 -141 203
-263 -8 -242 -350 -416 -537 -273 -40 31 -122 146 -140 199 -27 74 -11 150 46
229 34 48 114 104 160 114 17 3 48 11 68 18 52 18 115 11 200 -24z"/>
<path d="M5949 4649 c0 -323 0 -887 1 -901 0 -3 109 -95 243 -203 332 -270
344 -280 415 -347 l43 -41 -4 -131 c-2 -72 -1 -138 3 -146 4 -8 11 -37 14 -63
12 -84 44 -136 161 -255 60 -63 123 -121 138 -129 34 -17 166 -52 227 -59 25
-3 74 -9 110 -14 36 -5 108 -8 160 -7 86 2 102 5 165 36 125 61 218 182 274
352 33 102 68 278 66 334 -6 133 -109 242 -349 370 -140 74 -181 85 -300 81
-112 -4 -216 -33 -358 -101 l-78 -36 -107 83 c-60 45 -115 88 -123 95 -8 7
-80 63 -160 125 -80 62 -158 123 -174 135 l-28 23 2 352 c3 510 2 719 -2 724
-2 2 -49 10 -103 19 -55 9 -111 18 -125 21 -14 2 -44 7 -67 11 l-43 6 -1 -334z
m1491 -1404 c126 -42 224 -153 245 -275 3 -19 10 -60 15 -90 34 -193 -96 -337
-320 -355 -182 -15 -371 84 -445 232 -25 49 -29 70 -29 138 -1 68 4 89 28 139
86 180 314 275 506 211z"/>
<path d="M13131 3618 l0 -1313 228 -178 c224 -175 339 -267 636 -511 166 -136
196 -162 334 -286 157 -140 184 -173 194 -235 29 -180 75 -337 110 -375 54
-61 209 -141 377 -195 68 -21 97 -26 142 -21 83 8 204 51 268 95 50 34 58 45
87 117 68 166 82 298 49 454 -7 31 -42 124 -64 170 -39 79 -126 136 -260 171
-125 32 -172 29 -362 -24 -47 -13 -93 -23 -103 -21 -14 2 -165 108 -257 181
-218 172 -476 378 -480 382 -3 4 -25 22 -50 41 -25 19 -47 37 -50 40 -3 3 -39
33 -80 65 -41 33 -77 62 -80 65 -3 3 -68 57 -145 120 -77 62 -144 117 -150
122 -6 5 -8 455 -6 1218 l2 1210 -28 1 c-15 1 -39 2 -53 4 -14 1 -78 6 -142
10 l-118 6 1 -1313z m2061 -2296 c155 -76 226 -262 157 -412 -73 -156 -234
-215 -390 -143 -68 32 -128 85 -157 138 -11 21 -17 60 -19 126 -2 85 1 103 22
145 39 79 89 125 170 157 58 22 158 17 217 -11z"/>
</g>
</svg>
